PathFileType	4	(X/Y/Z)	5_coords_data.trc
DataRate	CameraRate	NumFrames	NumMarkers	Units	OrigDataRate	OrigDataStartFrame	OrigNumFrames
30.0	30.0	6	21	m	30.0	1	59
Frame#	Time	THUMB_TIP	THUMB_IP	THUMB_MCP	THUMB_CMC	INDEX_TIP	INDEX_DIP	INDEX_PIP	INDEX_MCP	MIDDLE_TIP	MIDDLE_DIP	MIDDLE_PIP	MIDDLE_MCP	RING_TIP	RING_DIP	RING_PIP	RING_MCP	PINKY_TIP	PINKY_DIP	PINKY_PIP	PINKY_MCP	WRIST
X1	Y1	Z1	X2	Y2	Z2	X3	Y3	Z3	X4	Y4	Z4	X5	Y5	Z5	X6	Y6	Z6	X7	Y7	Z7	X8	Y8	Z8	X9	Y9	Z9	X10	Y10	Z10	X11	Y11	Z11	X12	Y12	Z12	X13	Y13	Z13	X14	Y14	Z14	X15	Y15	Z15	X16	Y16	Z16	X17	Y17	Z17	X18	Y18	Z18	X19	Y19	Z19	X20	Y20	Z20	X21	Y21	Z21
0	0.0	-0.028842199325561525	-0.15410000610351562	0.9690709838867188	-0.024925899505615235	-0.13361700439453125	0.9853070068359375	-0.026485599517822266	-0.12214199829101563	1.0164000244140625	-0.02373590087890625	-0.09524490356445313	1.0308299560546874	-0.007135079860687256	-0.09912370300292969	1.0183499755859375	-0.005546070098876953	-0.10299800109863282	0.997802001953125	-0.010441800117492676	-0.109197998046875	0.9739039916992187	-0.05049819946289062	-0.10728600311279297	0.9818099975585938	-0.009319270133972168	-0.08653949737548829	1.013719970703125	-0.003942539930343628	-0.08726850128173828	0.9961840209960937	-0.010136799812316894	-0.08909400177001953	0.9656680297851562	-0.0521692008972168	-0.08908989715576172	0.977593994140625	-0.011666899681091308	-0.07022570037841797	1.019489990234375	-0.0070803799629211425	-0.06969709777832031	0.9977760009765625	-0.009029419898986816	-0.07043219757080078	0.972030029296875	-0.048961498260498046	-0.06989520263671875	0.9777949829101562	-0.01976230049133301	-0.05732040023803711	1.0118400268554688	-0.008423830032348633	-0.05652429962158203	0.9952219848632813	-0.011218600273132324	-0.05519599914550781	0.9770850219726562	-0.040933101654052735	-0.052478801727294924	0.980635986328125	-0.034559299468994144	-0.06234519958496094	1.04727001953125
1	0.03333333333333333	-0.03012630081176758	-0.15386399841308593	0.97002001953125	-0.025269100189208984	-0.13339399719238282	0.9858200073242187	-0.02645319938659668	-0.12265499877929688	1.0148900146484374	-0.02275909996032715	-0.09313480377197265	1.03043994140625	-0.010089599609375	-0.0983988037109375	1.0174600219726562	-0.0059689898490905766	-0.10248400115966796	0.9972239990234375	-0.010111900329589843	-0.10831900024414062	0.9745999755859375	-0.050219200134277345	-0.10792900085449218	0.9816829833984375	-0.013345499992370606	-0.08616439819335937	1.0161599731445312	-0.0041286001205444334	-0.08603919982910156	0.9969310302734375	-0.009910409927368163	-0.08917050170898437	0.9694099731445313	-0.05172209930419922	-0.08863269805908203	0.9771890258789062	-0.01801930046081543	-0.07095259857177734	1.013969970703125	-0.006705269813537597	-0.07009449768066406	0.9983579711914062	-0.008988269805908203	-0.07006649780273437	0.972239990234375	-0.04876449966430664	-0.06988950347900391	0.9780490112304687	-0.020410200119018555	-0.05720859909057617	1.0101699829101562	-0.00912090015411377	-0.05618709945678711	0.9960689697265624	-0.011051799774169922	-0.05457440185546875	0.9786610107421875	-0.04038479995727539	-0.052013301849365236	0.9808070068359375	-0.0351786003112793	-0.0623568000793457	1.0459100341796874
2	0.06666666666666667	-0.030333999633789063	-0.15376100158691405	0.9700159912109375	-0.02542020034790039	-0.13336700439453125	0.9859359741210938	-0.026542699813842774	-0.12265799713134766	1.0151300048828125	-0.022774700164794923	-0.09321720123291016	1.0305	-0.010190099716186523	-0.09856230163574219	1.0175700073242187	-0.005970849990844728	-0.10263200378417969	0.9972030029296876	-0.010049599647521973	-0.10832599639892578	0.9746690063476563	-0.05029000091552734	-0.10775099945068359	0.981698974609375	-0.013087300300598145	-0.08624579620361328	1.015530029296875	-0.0040948400497436525	-0.08613079833984374	0.9971500244140625	-0.00969277000427246	-0.08914800262451172	0.9695780029296875	-0.05162919998168945	-0.08849299621582031	0.9773389892578125	-0.017855499267578127	-0.07107740020751953	1.0141900024414063	-0.006530489921569824	-0.07018499755859375	0.9984979858398437	-0.008731929779052735	-0.07007099914550781	0.9725349731445313	-0.04858000183105469	-0.06971540069580077	0.9782379760742187	-0.020302600860595703	-0.05722610092163086	1.010760009765625	-0.008897680282592774	-0.056246200561523435	0.9963309936523438	-0.010801400184631348	-0.054581199645996094	0.978968994140625	-0.04015290069580078	-0.051884601593017575	0.9810419921875	-0.03504119873046875	-0.062436100006103515	1.045989990234375
3	0.1	-0.0300935001373291	-0.15383500671386718	0.9702169799804687	-0.02523539924621582	-0.1334320068359375	0.9860960083007813	-0.026414800643920898	-0.12266799926757813	1.015219970703125	-0.022761899948120116	-0.09319860076904297	1.03075	-0.01051550006866455	-0.0987073974609375	1.017739990234375	-0.005928790092468262	-0.10271299743652344	0.9974169921875	-0.009933890342712403	-0.1083489990234375	0.974885009765625	-0.05023360061645508	-0.10777899932861328	0.9818560180664062	-0.01334440040588379	-0.08624030303955078	1.0155	-0.004010839939117432	-0.08612429809570313	0.9974019775390625	-0.009521120071411133	-0.08915789794921875	0.9698140258789063	-0.051482799530029294	-0.08852259826660157	0.9774639892578125	-0.017651599884033205	-0.07110739898681641	1.014530029296875	-0.0064374499320983885	-0.07017269897460937	0.998635009765625	-0.008620809555053711	-0.07006390380859374	0.9727689819335937	-0.04845740127563476	-0.0697906036376953	0.9783800048828125	-0.020152700424194335	-0.05731779861450195	1.01052001953125	-0.00884945011138916	-0.056265499114990236	0.9964619750976562	-0.010757800102233886	-0.05458349990844726	0.9790689697265625	-0.04006119918823242	-0.0519635009765625	0.9811959838867188	-0.03491019821166992	-0.062370800018310545	1.04618994140625
4	0.13333333333333333	-0.029849599838256836	-0.1538560028076172	0.970333984375	-0.024984500885009767	-0.1334510040283203	0.9862650146484375	-0.026203699111938476	-0.12271800231933594	1.0154000244140624	-0.02254389953613281	-0.09323040008544922	1.0309599609375	-0.010615699768066407	-0.09869000244140624	1.0178499755859376	-0.005662759780883789	-0.10266799926757812	0.997666015625	-0.009654529571533203	-0.10835199737548828	0.975073974609375	-0.0499739990234375	-0.107802001953125	0.9819970092773438	-0.013353699684143067	-0.08636759948730469	1.0156799926757814	-0.003798789978027343	-0.08619120025634766	0.9976270141601562	-0.009331979751586915	-0.08916269683837891	0.9699920043945313	-0.051250598907470704	-0.0885208969116211	0.9776290283203125	-0.017255399703979494	-0.07117079925537109	1.0148699951171876	-0.006249380111694336	-0.0702228012084961	0.998968017578125	-0.008424010276794434	-0.07006909942626953	0.9728720092773437	-0.048240501403808596	-0.06976789855957032	0.9785989990234375	-0.02004159927368164	-0.057413299560546874	1.0105900268554688	-0.008671669960021973	-0.05630580139160156	0.9968469848632813	-0.010489299774169921	-0.05459370040893555	0.9794240112304687	-0.03983380126953125	-0.051956298828125	0.9814110107421875	-0.03484030151367187	-0.06250310134887695	1.04643994140625
5	0.16666666666666666	-0.02970989990234375	-0.15393499755859374	0.9704829711914063	-0.02486079978942871	-0.13356100463867188	0.9864010009765625	-0.026166799545288087	-0.12280899810791016	1.0155599975585938	-0.0223031005859375	-0.09346299743652343	1.0310799560546875	-0.010237899780273438	-0.09871089935302735	1.0185999755859374	-0.005523489952087402	-0.10271099853515625	0.9977960205078125	-0.009536700248718262	-0.1084199981689453	0.9751900024414063	-0.049844200134277344	-0.107875	0.9821630249023438	-0.012977299690246582	-0.08643509674072265	1.0159400024414063	-0.0036873300075531	-0.08624520111083984	0.9976669921875	-0.009227410316467285	-0.08924669647216797	0.9701010131835938	-0.051106399536132815	-0.08857319641113282	0.9778109741210937	-0.017477800369262695	-0.0713188018798828	1.0146900024414063	-0.0061173300743103025	-0.07028959655761718	0.9990869750976562	-0.008260959625244141	-0.07013400268554687	0.9729819946289062	-0.048102798461914065	-0.06981169891357422	0.9787849731445313	-0.019834999084472657	-0.05752410125732422	1.0105800170898438	-0.008485540390014649	-0.056360698699951174	0.9969359741210938	-0.010358900070190429	-0.0546603012084961	0.9794459838867188	-0.03974489974975586	-0.051995700836181644	0.9816430053710937	-0.0346786003112793	-0.06260440063476562	1.0466400146484376
